# xmcd
#
# Track frame offsets: 
#        150
#        9351
#        23601
#        36560
#        49320
#        61498
#        72957
#        83685
#        95424
#        105661
#        118267
#        129635
#        139413
#        149457
#        165442
#        175939
#        187057
#        197886
#
# Disc length: 2816 seconds
#
# Revision: 0
# Processed by: cddbd v1.5.1PL2 Copyright (c) Steve Scherf et al.
# Submitted via: ExactAudioCopy v0.95b3
#
DISCID=090afe12
DTITLE=Various Artist - Big Country Drivin' Hits
DYEAR=1900
DGENRE=Country
TTITLE0=Jim Reeves \\ Peace In The Valley
TTITLE1=George Jones \\ A Good Year For The Roses
TTITLE2=Glen Campbell \\ Rhinestone Coyboy
TTITLE3=Lynn Anderson \\ Rose Garden
TTITLE4=Loretta Lynn \\ Me And Bobby McGee
TTITLE5=Patsy Cline \\ Walkin' After Midnight
TTITLE6=Billie Jo Spears \\ I'm So Lonesome I Could Cry
TTITLE7=Don Gibson \\ Oh, Lonesome Me
TTITLE8=Frankie Laine \\ I Believe
TTITLE9=Charley Pride \\ Kaw-Liga
TTITLE10=Don Williams \\ Storybook Children
TTITLE11=Carl Perkins \\ This Ole House
TTITLE12=Brenda Lee \\ I'm Sorry
TTITLE13=Anne Murray \\ Both Sides Now
TTITLE14=Roger Miller \\ King Of The Road
TTITLE15=Jeannie C Riley \\ Box Of Memories
TTITLE16=Hank Locklin \\ Send Me The Pillow You Dream On
TTITLE17=Kenny Rogers \\ Ruby (Don't Take Your Love To Town)
EXTD=
EXTT0=
EXTT1=
EXTT2=
EXTT3=
EXTT4=
EXTT5=
EXTT6=
EXTT7=
EXTT8=
EXTT9=
EXTT10=
EXTT11=
EXTT12=
EXTT13=
EXTT14=
EXTT15=
EXTT16=
EXTT17=
PLAYORDER=
